<?xml version="1.0" encoding="utf-8"?>
<!-- Generator: Adobe Illustrator 21.0.0, SVG Export Plug-In . SVG Version: 6.00 Build 0)  -->
<svg version="1.1" id="Layer_1" xmlns="http://www.w3.org/2000/svg" xmlns:xlink="http://www.w3.org/1999/xlink" x="0px" y="0px"
	 viewBox="0 0 30 30" style="enable-background:new 0 0 30 30;" xml:space="preserve">
<style type="text/css">
	.st0{opacity:0.9;fill:#9D5FB5;enable-background:new    ;}
	.st1{opacity:0.9;fill:#808DFF;enable-background:new    ;}
	.st2{opacity:0.9;fill:#EE7D15;enable-background:new    ;}
	.st3{opacity:0.9;fill:#C83A23;enable-background:new    ;}
	.st4{opacity:0.9;fill:#EFA329;enable-background:new    ;}
</style>
<g>
	<path class="st0" d="M11.1,15.3c-4.6-2.4-10-1.3-10.1-1C0.8,14.5,3,19.6,7.6,22s8.6,3.1,9.8,0.9C18.6,20.6,15.6,17.7,11.1,15.3z"/>
	<path class="st1" d="M22.6,21.9c4.5-2.5,6.6-7.6,6.5-7.9c-0.1-0.2-5.6-1.2-10.1,1.3s-7.4,5.4-6.2,7.6
		C14.1,25.2,18.1,24.3,22.6,21.9z"/>
	<path class="st2" d="M14.9,14.2C12.2,9.9,7,8,6.7,8.2c-0.2,0.1-0.9,5.6,1.8,10s5.8,7.1,7.9,5.8C18.7,22.5,17.6,18.6,14.9,14.2z"/>
	<path class="st3" d="M21.6,18c2.6-4.4,1.8-9.9,1.5-10.1c-0.2-0.1-5.4,1.9-8,6.3s-3.5,8.5-1.4,9.7C16,25.2,19,22.4,21.6,18z"/>
	<path class="st4" d="M18.7,15.2c0-5.1-3.5-9.5-3.8-9.5c-0.3,0-3.7,4.3-3.7,9.5s1.2,9.1,3.7,9.1C17.6,24.3,18.7,20.3,18.7,15.2z"/>
</g>
</svg>
