<?xml version="1.0" encoding="utf-8"?>
<!-- Generator: Adobe Illustrator 21.0.0, SVG Export Plug-In . SVG Version: 6.00 Build 0)  -->
<svg version="1.1" id="Layer_1" xmlns="http://www.w3.org/2000/svg" xmlns:xlink="http://www.w3.org/1999/xlink" x="0px" y="0px"
	 viewBox="0 0 331.3 92.8" style="enable-background:new 0 0 331.3 92.8;" xml:space="preserve">
<style type="text/css">
	.st0{opacity:0.9;fill:#9D5FB5;enable-background:new    ;}
	.st1{opacity:0.9;fill:#808DFF;enable-background:new    ;}
	.st2{opacity:0.9;fill:#EE7D15;enable-background:new    ;}
	.st3{opacity:0.9;fill:#C83A23;enable-background:new    ;}
	.st4{opacity:0.9;fill:#EFA329;enable-background:new    ;}
	.st5{fill:#F0A238;}
	.st6{font-family:'OpenSans';}
	.st7{font-size:25.32px;}
	.st8{letter-spacing:1;}
</style>
<title>SRIJAN FOUNDATION LOGO</title>
<g id="Layer_2">
	<g id="Layer_1-2">
		<path class="st0" d="M50.7,48.1C27.9,36.2,0.8,41.5,0,42.9C-0.6,44,10.6,69.4,33.3,81.3s43,15.7,48.8,4.6
			C88.3,74.2,73.5,60,50.7,48.1z"/>
		<path class="st1" d="M108.3,80.7c22.5-12.3,33.2-37.9,32.5-39.3c-0.6-1.2-28-6-50.5,6.4s-37,27.1-30.9,38
			C65.7,97.5,85.8,93,108.3,80.7z"/>
		<path class="st2" d="M69.8,42.4C56.3,20.6,30.3,11.2,28.9,12.1c-1.1,0.7-4.5,28.2,9,50.1S67,97.6,77.6,91
			C88.9,84.1,83.4,64.2,69.8,42.4z"/>
		<path class="st3" d="M103.3,61.2c13-22.2,9-49.6,7.6-50.4c-1.1-0.7-27,9.3-40,31.4S53.2,84.5,64,90.8
			C75.4,97.5,90.3,83.3,103.3,61.2z"/>
		<path class="st4" d="M89,47.3C89,21.6,71.7,0,70.2,0c-1.3,0-18.7,21.6-18.7,47.3s6,45.4,18.5,45.4C83.2,92.8,89,73,89,47.3z"/>
		<path class="st5" d="M180.7,43.9c0.1,2.8-1.1,5.5-3.3,7.3c-2.2,1.8-5.3,2.7-9.3,2.7c-3.3,0.1-6.6-0.6-9.7-2V45
			c1.9,0.9,3.8,1.6,5.9,2.2c1.4,0.4,2.9,0.6,4.4,0.6c1.3,0.1,2.6-0.2,3.6-0.9c0.9-0.6,1.3-1.6,1.3-2.7c0-0.6-0.2-1.3-0.6-1.8
			c-0.5-0.6-1-1.1-1.6-1.5c-1.4-0.8-2.9-1.6-4.4-2.3c-1.7-0.7-3.3-1.7-4.7-2.8c-1-0.9-1.9-1.9-2.5-3.2c-0.6-1.3-1-2.7-0.9-4.2
			c-0.1-2.7,1-5.3,3.1-7.1c2-1.7,4.9-2.6,8.5-2.6c1.7,0,3.4,0.2,5.1,0.6c1.7,0.5,3.4,1.1,5.1,1.8l-2.3,5.6c-1.5-0.6-3-1.1-4.5-1.6
			c-1.1-0.3-2.3-0.4-3.5-0.4c-1.1-0.1-2.3,0.3-3.1,1c-0.7,0.6-1.1,1.5-1.1,2.5c0,0.6,0.1,1.2,0.4,1.7c0.4,0.6,0.9,1,1.4,1.4
			c1.5,0.9,3,1.7,4.6,2.4c3.2,1.5,5.4,3.1,6.6,4.6C180.2,39.9,180.8,41.9,180.7,43.9z"/>
		<path class="st5" d="M195.9,40.2v13.1h-7.2V19.2h9.9c4.7,0,8.1,0.8,10.3,2.5c2.2,1.7,3.3,4.2,3.3,7.7c0,1.9-0.6,3.8-1.7,5.4
			c-1.2,1.6-2.8,2.9-4.7,3.7c5.1,7.7,8.5,12.6,10,14.9h-8l-8.1-13.1L195.9,40.2z M195.9,34.4h2.3c1.8,0.1,3.5-0.3,5.1-1.1
			c1.1-0.8,1.7-2.2,1.6-3.6c0.1-1.4-0.5-2.7-1.7-3.5c-1.6-0.8-3.4-1.1-5.2-1h-2.2L195.9,34.4z"/>
		<path class="st5" d="M221.9,53.3V19.2h7.2v34.1H221.9z"/>
		<path class="st5" d="M241.6,53.8c-1.4,0-2.9-0.1-4.3-0.5v-6c1.1,0.3,2.3,0.5,3.4,0.5c1.3,0.1,2.6-0.4,3.4-1.5c0.8-1.4,1.1-3,1-4.6
			l-0.1-22.5h7.2l0.1,22.4c0,4-0.9,7-2.7,9.1C247.9,52.8,245.2,53.8,241.6,53.8z"/>
		<path class="st5" d="M283.5,53.3l-2.5-8.1h-12.4l-2.5,8.1h-7.8l12-34.3h8.9l12.1,34.3H283.5z M279.3,39.1
			c-2.3-7.3-3.6-11.5-3.9-12.5c-0.3-1-0.5-1.8-0.6-2.3c-0.5,2-2,6.9-4.4,14.8H279.3z"/>
		<path class="st5" d="M327.6,53.3h-9.2l-14.8-25.8h-0.2c0.3,4.6,0.4,7.8,0.4,9.8v16.1h-6.5V19.2h9.1l14.8,25.6h0.2
			c-0.2-4.4-0.4-7.6-0.4-9.4V19.2h6.5L327.6,53.3z"/>
		<text transform="matrix(1 0 0 1 157.57 81.7)" class="st5 st6 st7 st8">FOUNDATION</text>
	</g>
</g>
</svg>
